<?xml version="1.0" encoding="UTF-8" standalone="no"?>
<!-- Created with Inkscape (http://www.inkscape.org/) -->

<svg
   xmlns:dc="http://purl.org/dc/elements/1.1/"
   xmlns:cc="http://creativecommons.org/ns#"
   xmlns:rdf="http://www.w3.org/1999/02/22-rdf-syntax-ns#"
   xmlns:svg="http://www.w3.org/2000/svg"
   xmlns="http://www.w3.org/2000/svg"
   xmlns:xlink="http://www.w3.org/1999/xlink"
   xmlns:sodipodi="http://sodipodi.sourceforge.net/DTD/sodipodi-0.dtd"
   xmlns:inkscape="http://www.inkscape.org/namespaces/inkscape"
   width="210mm"
   height="297mm"
   id="svg2"
   version="1.1"
   inkscape:version="0.48.4 r9939"
   sodipodi:docname="home_apresentacao.svg">
  <defs
     id="defs4">
    <linearGradient
       id="linearGradient4135">
      <stop
         style="stop-color:#2d1650;stop-opacity:1;"
         offset="0"
         id="stop4137" />
      <stop
         id="stop4143"
         offset="0.5"
         style="stop-color:#7c0b28;stop-opacity:1;" />
      <stop
         style="stop-color:#cb0000;stop-opacity:1;"
         offset="1"
         id="stop4139" />
    </linearGradient>
    <linearGradient
       id="linearGradient4027">
      <stop
         style="stop-color:#009bff;stop-opacity:1;"
         offset="0"
         id="stop4029" />
      <stop
         id="stop4037"
         offset="0.25"
         style="stop-color:#305c9f;stop-opacity:1;" />
      <stop
         id="stop4035"
         offset="0.5"
         style="stop-color:#421d53;stop-opacity:1;" />
      <stop
         style="stop-color:#853a27;stop-opacity:1;"
         offset="1"
         id="stop4031" />
    </linearGradient>
    <linearGradient
       id="linearGradient3909">
      <stop
         style="stop-color:#ffff00;stop-opacity:1;"
         offset="0"
         id="stop3911" />
      <stop
         style="stop-color:#0fa200;stop-opacity:0.98373985;"
         offset="1"
         id="stop3913" />
    </linearGradient>
    <linearGradient
       inkscape:collect="always"
       xlink:href="#linearGradient4027"
       id="linearGradient4033"
       x1="195.80324"
       y1="220.92377"
       x2="420.79453"
       y2="261.19742"
       gradientUnits="userSpaceOnUse"
       gradientTransform="matrix(0.97243277,0,0,0.97243277,-9.8883091,-65.113487)" />
    <filter
       inkscape:collect="always"
       id="filter4065">
      <feGaussianBlur
         inkscape:collect="always"
         stdDeviation="3.497243"
         id="feGaussianBlur4067" />
    </filter>
  </defs>
  <sodipodi:namedview
     id="base"
     pagecolor="#ffffff"
     bordercolor="#666666"
     borderopacity="1.0"
     inkscape:pageopacity="0.0"
     inkscape:pageshadow="2"
     inkscape:zoom="0.35"
     inkscape:cx="1321.4217"
     inkscape:cy="535.39423"
     inkscape:document-units="px"
     inkscape:current-layer="layer1"
     showgrid="false"
     showguides="true"
     inkscape:guide-bbox="true"
     inkscape:window-width="1366"
     inkscape:window-height="719"
     inkscape:window-x="-4"
     inkscape:window-y="0"
     inkscape:window-maximized="1" />
  <metadata
     id="metadata7">
    <rdf:RDF>
      <cc:Work
         rdf:about="">
        <dc:format>image/svg+xml</dc:format>
        <dc:type
           rdf:resource="http://purl.org/dc/dcmitype/StillImage" />
        <dc:title></dc:title>
      </cc:Work>
    </rdf:RDF>
  </metadata>
  <g
     inkscape:label="Camada 1"
     inkscape:groupmode="layer"
     id="layer1">
    <path
       sodipodi:type="arc"
       style="fill:#ff6600;fill-opacity:1;stroke:none"
       id="path3793"
       sodipodi:cx="117.68277"
       sodipodi:cy="122.01169"
       sodipodi:rx="79.296974"
       sodipodi:ry="78.791901"
       d="m 196.97974,122.01169 a 79.296974,78.791901 0 1 1 -158.593944,0 79.296974,78.791901 0 1 1 158.593944,0 z"
       transform="matrix(0.76311452,0,0,0.69138647,165.72563,637.76365)" />
    <rect
       y="0.79338288"
       x="2.0203052"
       height="260.61935"
       width="742.4621"
       id="rect2993"
       style="fill:#37c871;stroke:none;stroke-width:3;stroke-miterlimit:4;stroke-opacity:0.58303886999999999;stroke-dasharray:none" />
    <path
       style="fill:#ffff00;stroke:none;opacity:0.41034483"
       d="M 26.532042,2.8015548 C 16.909529,5.8144938 7.7212838,9.0855486 -0.99920763,12.614055 l 0,195.562505 C 48.283179,228.11732 112.7577,240.20781 183.34455,240.20781 c 154.81499,0 280.3125,-58.1234 280.3125,-129.8125 0,-44.786744 -48.98824,-84.263119 -123.5,-107.5937552 l -313.625008,0 z"
       id="rect2985"
       inkscape:connector-curvature="0" />
    <path
       style="fill:#ffff00;stroke:none;opacity:0.61034483"
       d="m 0.818047,-1.2390551 0,143.4374951 c 46.497865,15.87241 103.957973,25.28125 166.156253,25.28125 154.81499,0 280.3125,-58.1234 280.3125,-129.812495 0,-13.557129 -4.48645,-26.621215 -12.8125,-38.9062501 l -433.656253,0 z"
       id="rect2997"
       inkscape:connector-curvature="0" />
    <path
       style="fill:#0062d3;stroke:none;opacity:0.66896552;fill-opacity:1"
       d="m 1.0210974,0.78125 0,130.625 c 33.9768516,22.9315 80.4935656,37.0625 131.8124926,37.0625 104.04683,0 188.40625,-58.09215 188.40625,-129.78125 0,-13.178225 -2.85742,-25.922051 -8.15625,-37.90625 l -312.0624926,0 z"
       id="rect2995"
       inkscape:connector-curvature="0" />
    <path
       d="m 196.97974,122.01169 a 79.296974,78.791901 0 1 1 -158.593944,0 79.296974,78.791901 0 1 1 158.593944,0 z"
       sodipodi:ry="78.791901"
       sodipodi:rx="79.296974"
       sodipodi:cy="122.01169"
       sodipodi:cx="117.68277"
       id="path3795"
       style="opacity:0.59310345;fill:#ff7f2a;fill-opacity:1;stroke:none;filter:url(#filter4065)"
       sodipodi:type="arc"
       transform="matrix(0.83901961,0,0,0.51384089,149.82159,686.2851)" />
    <path
       inkscape:connector-curvature="0"
       id="path3002"
       d="m 2.0312496,0.78124996 0,96.00195804 C 26.790418,113.63656 60.68747,124.02204 98.08394,124.02204 c 75.81964,0 137.29294,-42.694433 137.29294,-95.38185 0,-9.685247 -2.08222,-19.0512346 -5.94352,-27.85894004 l -227.4021104,0 z"
       style="opacity:0.67586209;fill:#dedbe3;stroke:none" />
    <rect
       style="opacity:0.66896553999999997;fill:#008080;fill-opacity:1;stroke:none"
       id="rect3791"
       width="278.80209"
       height="261.62952"
       x="466.69049"
       y="0.79338288" />
    <text
       xml:space="preserve"
       style="font-size:40px;font-style:normal;font-weight:normal;line-height:125%;letter-spacing:0px;word-spacing:0px;fill:#000000;fill-opacity:1;stroke:none;font-family:Sans"
       x="152.85715"
       y="138.07648"
       id="text4005"
       sodipodi:linespacing="125%"><tspan
         sodipodi:role="line"
         id="tspan4007"
         x="152.85715"
         y="138.07648" /></text>
    <text
       xml:space="preserve"
       style="font-size:40px;font-style:normal;font-weight:normal;line-height:125%;letter-spacing:0px;word-spacing:0px;fill:#000000;fill-opacity:1;stroke:none;font-family:Sans"
       x="188.57143"
       y="183.79076"
       id="text4009"
       sodipodi:linespacing="125%"><tspan
         sodipodi:role="line"
         id="tspan4011"
         x="188.57143"
         y="183.79076" /></text>
    <path
       id="path4053"
       style="fill:#ff7f2a;stroke:#ffb380;stroke-width:0.72636563"
       d="m 299.34571,696.93983 c 11.20049,5.41085 12.12289,14.47848 10.47861,28.52332 l -10.88024,1.86149 -11.64754,-7.24561 0,-13.32257 z m -31.61474,44.44627 20.88524,0.23372 12.08159,8.30435 c -13.47364,12.14269 -13.87916,14.05869 -33.36846,21.84674 l -11.64754,-7.24561 0,-13.32257 z m -55.59834,0 20.88523,0.23372 12.85246,10.05037 0,11.219 -10.9253,7.36943 c -18.04783,-4.87149 -18.69018,-8.06083 -32.93441,-19.05589 z m 40.33605,-39.5078 20.88524,0.23372 12.85246,10.05037 0,11.219 -12.85246,9.11545 -21.28687,-0.23373 -11.64755,-7.24561 0,-13.32257 z m -52.32786,0 20.88524,0.23372 12.85246,10.05037 0,11.219 -12.85246,9.11545 -21.28687,-0.23373 -7.4078,-7.24561 0.77086,-13.67178 z m 62.84406,-34.73878 c 21.69267,4.74652 24.88324,9.11811 34.12313,18.70947 l -12.85245,9.11544 -21.28688,-0.23373 -11.64754,-7.2456 0,-13.32258 z m -31.05719,1.39088 12.85246,10.05037 0,11.219 -12.85246,9.11544 -21.28687,-0.23373 -11.64754,-7.2456 6.55233,-5.98931 c 4.07317,-7.65182 18.07166,-12.95244 26.38208,-16.91617 z m 78.98613,50.92696 c 0,29.50749 -26.7473,53.42805 -59.7418,53.42805 -32.9945,0 -59.74181,-23.92056 -59.74181,-53.42805 0,-29.50749 26.74731,-53.42804 59.74181,-53.42804 32.9945,0 59.7418,23.92055 59.7418,53.42804 z"
       inkscape:connector-curvature="0"
       sodipodi:nodetypes="cccccccccccccccccccccccccccccccccccccccccccccccccccccsssss" />
    <text
       xml:space="preserve"
       style="font-size:65.04483032px;font-style:normal;font-variant:normal;font-weight:bold;font-stretch:normal;line-height:125%;letter-spacing:0px;word-spacing:0px;fill:#004455;fill-opacity:1;stroke:none;font-family:Arial;-inkscape-font-specification:Arial Bold"
       x="197.2426"
       y="81.430374"
       id="text4013"
       sodipodi:linespacing="125%"
       transform="scale(1.1511794,0.86867434)"><tspan
         sodipodi:role="line"
         id="tspan4015"
         x="197.2426"
         y="81.430374"
         style="font-style:normal;font-variant:normal;font-weight:bold;font-stretch:normal;fill:#004455;stroke:none;font-family:Arial;-inkscape-font-specification:Arial Bold">Entre</tspan></text>
    <text
       xml:space="preserve"
       style="font-size:52.71759796px;font-style:normal;font-weight:normal;line-height:125%;letter-spacing:0px;word-spacing:0px;fill:#008080;fill-opacity:1;stroke:none;font-family:Sans"
       x="170.61243"
       y="149.01436"
       id="text4017"
       sodipodi:linespacing="125%"
       transform="scale(1.1719592,0.85327202)"><tspan
         sodipodi:role="line"
         id="tspan4019"
         x="170.61243"
         y="149.01436"
         style="font-style:normal;font-variant:normal;font-weight:bold;font-stretch:normal;fill:#008080;font-family:Arial;-inkscape-font-specification:Arial Bold">Para</tspan></text>
    <path
       d="m 196.97974,122.01169 a 79.296974,78.791901 0 1 1 -158.593944,0 79.296974,78.791901 0 1 1 158.593944,0 z"
       sodipodi:ry="78.791901"
       sodipodi:rx="79.296974"
       sodipodi:cy="122.01169"
       sodipodi:cx="117.68277"
       id="path3801"
       style="opacity:0.40689655;fill:#ffb380;fill-opacity:1;stroke:none"
       sodipodi:type="arc"
       transform="matrix(0.68465402,0,0,0.5966099,172.0393,645.28671)" />
    <path
       transform="matrix(0.4811996,0,0,0.27478181,196.26959,661.15793)"
       sodipodi:type="arc"
       style="opacity:0.28275865;fill:#ffccaa;fill-opacity:1;stroke:none"
       id="path3797"
       sodipodi:cx="117.68277"
       sodipodi:cy="122.01169"
       sodipodi:rx="79.296974"
       sodipodi:ry="78.791901"
       d="m 196.97974,122.01169 a 79.296974,78.791901 0 1 1 -158.593944,0 79.296974,78.791901 0 1 1 158.593944,0 z" />
  </g>
</svg>
